<?xml version="1.0" encoding="utf-8"?>
<!-- Generator: Adobe Illustrator 26.0.1, SVG Export Plug-In . SVG Version: 6.00 Build 0)  -->
<svg version="1.1" id="Layer_1" xmlns="http://www.w3.org/2000/svg" xmlns:xlink="http://www.w3.org/1999/xlink" x="0px" y="0px"
	 viewBox="0 0 200 200" style="enable-background:new 0 0 200 200;" xml:space="preserve">
<style type="text/css">
	.st0{fill:#FDCB02;}
</style>
<g>
	<path class="st0" d="M85.58,55.05c-0.17-12.81,4.3-29.89-2.2-37.26c-7.49-8.5-25.01-1.47-35.76-2.73c-13.19,0-24.06,0.34-34.89-0.1
		c-6.91-0.29-8.96,2.32-8.84,9.06C4.25,45.31,4.21,66.62,3.92,87.9c-0.1,6.02,1.3,8.55,7.95,8.43c22.08-0.36,44.19-0.29,66.3-0.02
		c5.73,0.07,7.73-1.74,7.56-7.54C85.34,77.54,85.72,66.28,85.58,55.05z M45.38,79.62c-24.06,0-24.06,0-24.06-24.55
		c0-22.47,0-22.47,22.71-22.47c24.52,0,24.52,0,24.52,24.09C68.55,79.62,68.55,79.62,45.38,79.62z"/>
	<path class="st0" d="M85.7,184.28c-0.34-10.44-0.1-20.87-0.1-31.34c0-11.23-0.24-22.49,0.1-33.73c0.17-5.75-1.91-7.8-7.63-7.76
		c-22.11,0.22-44.21,0.19-66.3,0.02c-5.53-0.05-7.9,1.69-7.85,7.59c0.27,22.08,0.29,44.19,0,66.27c-0.07,5.94,2.1,7.49,7.71,7.44
		c22.11-0.24,44.21-0.36,66.3,0.05C84.73,192.95,85.89,190.13,85.7,184.28z M68.55,152.63c0,23.48,0,23.48-23.85,23.48
		c-23.39,0-23.39,0-23.39-22.83c0-24.21,0-24.21,24.57-24.21c22.66,0,22.66,0,22.66,22.35V152.63z"/>
	<path class="st0" d="M182.24,120.09c0.14-7.25-2.8-8.72-9.23-8.65c-21.29,0.29-42.59,0.34-63.88-0.02
		c-7.03-0.12-8.84,2.56-8.75,9.21c0.34,21.29,0.34,42.57,0,63.86c-0.07,6.16,1.57,8.6,8.07,8.34c11.23-0.46,22.52-0.12,33.75-0.12
		c10.85,0,21.72-0.29,32.54,0.1c5.87,0.22,7.51-1.96,7.47-7.63C181.95,163.48,181.83,141.76,182.24,120.09z M141.07,176.11
		c-23.27,0-23.27,0-23.27-22.95c0-24.09,0-24.09,23.51-24.09c23.75,0,23.75,0,23.75,23.68
		C165.07,176.11,165.07,176.11,141.07,176.11z"/>
	<path class="st0" d="M149.21,7.16c5.98,27.43,19.49,39.33,46.91,30.27c-0.09,1.31-0.17,2.61-0.26,3.92
		c-4.38,3.49-8.33,7.83-13.22,10.32c-12.99,6.62-15.14,15.67-8.47,28.11c2.2,4.1,2.99,8.96,5.51,16.89
		c-9.18-6.29-16.22-10.4-22.38-15.55c-5.67-4.73-9.99-4.77-15.66-0.01c-6.05,5.09-12.97,9.15-19.6,13.71
		c-0.74-1.29-1.54-2.14-1.37-2.45c12.88-23.27,7.49-40.49-20.26-50.39c1.08-0.94,2.16-1.87,3.24-2.81c8.2,0,16.43-0.46,24.59,0.14
		c7.19,0.52,11.07-1.9,12.92-8.98C142.97,23.42,145.81,16.78,149.21,7.16z"/>
</g>
</svg>
