<?xml version="1.0" encoding="utf-8"?>
<!-- Generator: Adobe Illustrator 26.0.1, SVG Export Plug-In . SVG Version: 6.00 Build 0)  -->
<svg version="1.1" id="Layer_1" xmlns="http://www.w3.org/2000/svg" xmlns:xlink="http://www.w3.org/1999/xlink" x="0px" y="0px"
	 viewBox="0 0 200 200" style="enable-background:new 0 0 200 200;" xml:space="preserve">
<style type="text/css">
	.st0{fill:#FFCF06;}
</style>
<g>
	<path class="st0" d="M142.88,52.57c-21.92-23.45-58.09-25.03-82.04-3.6c-23.03,20.64-26.34,57.08-4.89,79.57
		c9.16,9.6,11.33,18.84,10.52,30.56c-0.25,3.68-0.12,7.43,0.37,11.06c2.35,16.96,15.9,28.61,33.08,28.64
		c17.65,0.05,31.53-12.07,33.38-29.65c0.67-6.1,0.62-12.32,0.22-18.44c-0.44-7.41,1.63-12.71,7.38-18.14
		C163.49,111.13,163.98,75.14,142.88,52.57z M123.35,124.39c-6.76,4.34-8.05,9.28-7.75,16.32c0.4,8.62,0.42,17.28-0.15,25.87
		c-0.64,9.5-5.88,15.23-15.9,15.03c-9.38-0.2-13.97-5.83-15.01-14.71c-0.35-2.84-0.37-5.75-0.17-8.62
		c1.01-15.6,0.52-29.03-14.32-40.71c-14.2-11.16-13.65-33.25-3.53-48.61c9.6-14.59,28.24-21.08,45.37-15.82
		c17.48,5.36,28.54,20.49,28.41,38.78C140.14,105.62,134.7,117.1,123.35,124.39z"/>
	<path class="st0" d="M100.38,18.3c-8.09,1.62-9.27-2.32-9.58-8.73c-0.37-7.74,3.49-8.11,9.53-8.34c6.99-0.27,9.03,2.2,8.88,8.98
		C109.06,17.19,106.71,20.14,100.38,18.3z"/>
	<path class="st0" d="M42.05,139.43c4.37,3.18,10.63,6.43,10.1,11.2c-0.46,4.23-5.76,10.28-10.73,9.91
		c-4.59-0.35-10.36-5.65-10.11-10.46C31.57,145.45,37.02,141.77,42.05,139.43z"/>
	<path class="st0" d="M158.37,139.09c4.63,3.69,11.01,6.68,10.35,11.64c-0.57,4.35-5.79,10.4-10.78,9.83
		c-4.43-0.51-10.26-5.78-10-10.59C148.18,145.28,154.02,142.1,158.37,139.09z"/>
	<path class="st0" d="M26.4,91.59c1.6,7.26-1.91,9.03-8.65,8.77c-5.54-0.22-9.28-0.44-8.9-7.71c0.31-5.99,0.46-10.13,8.38-9.73
		C23.43,83.23,27.91,83.75,26.4,91.59z"/>
	<path class="st0" d="M182.94,100.01c-6.58,1.19-9.88-0.37-9.71-8.01c0.16-6.86,2.1-9.33,9.11-9.06c5.83,0.22,9.08,1.09,8.82,8.02
		C190.93,96.99,190.89,101.92,182.94,100.01z"/>
	<path class="st0" d="M52.89,33.12c-2.48,4.96-6.15,10.21-10.79,10.62c-5.01,0.44-10.18-5.21-10.62-9.82
		c-0.49-5.06,5.3-9.95,9.91-10.45C46.53,22.91,49.31,29.16,52.89,33.12z"/>
	<path class="st0" d="M169.47,33.23c-2.61,4.84-6.08,10.18-10.9,10.47c-5.03,0.29-10.18-5.32-10.54-9.86
		c-0.4-5,5.47-10.07,10.01-10.47C163,22.93,166.15,28.95,169.47,33.23z"/>
</g>
</svg>
