<?xml version="1.0" encoding="utf-8"?>
<!-- Generator: Adobe Illustrator 26.0.1, SVG Export Plug-In . SVG Version: 6.00 Build 0)  -->
<svg version="1.1" id="Layer_1" xmlns="http://www.w3.org/2000/svg" xmlns:xlink="http://www.w3.org/1999/xlink" x="0px" y="0px"
	 viewBox="0 0 200 200" style="enable-background:new 0 0 200 200;" xml:space="preserve">
<g>
	<path d="M141.27,121.28c-0.34,13.71-10.64,25.97-24.8,27.4c-6.55,0.66-8.73,2.6-7.82,8.68c1.13,7.41-2.72,8.61-9.2,8.68
		c-6.62,0.05-8.93-2.43-8.09-8.58c1.52-11.53-7.01-7.92-12.73-8.44c-5.52-0.47-12.58,2.58-12.07-8.14c0.34-7.06,2.53-9.34,9.3-8.81
		c5.67,0.47,11.4,0.1,17.12,0.1v-0.07c6.52,0,13.07,0.22,19.57-0.07c7.38-0.34,11.14-4.83,11.04-11.94
		c-0.07-6.67-4.02-10.64-10.69-10.94c-8.14-0.39-16.33,0.15-24.45-0.37c-17.1-1.1-29.09-12.7-29.7-28.21
		c-0.59-15.01,9.59-27.05,26.61-29.26c7.36-0.96,6.23-5.15,5.89-9.25c-0.59-6.89,2.75-8.07,8.71-8.02c5.81,0.02,9.76,0.93,8.71,7.9
		c-1.89,12.36,7.26,9.15,13.32,8.9c7.6-0.29,12.53,0.44,11.38,10.15c-0.61,5.25-2.23,7.01-7.38,6.92
		c-11.8-0.25-23.64,0.07-35.47-0.1c-8.12-0.15-13.88,2.87-14.08,11.53c-0.17,8.81,5.69,11.6,13.73,11.82
		c9.34,0.22,18.71-1.08,28.01,1.15C132.22,95.7,141.61,107.32,141.27,121.28z"/>
	<path d="M99.5,2C45.56,2.03,1.37,46.1,1.32,99.89C1.27,154.17,45.59,198.02,100.5,198c53.91-0.02,98.11-44.1,98.18-97.89
		C198.73,45.83,154.39,1.98,99.5,2z M99.13,181.15c-44.2-0.15-80.54-37.16-80.25-81.7c0.27-44.52,36.79-80.67,81.38-80.59
		c44.47,0.1,80.84,36.57,80.86,81.11C181.15,144.97,144.45,181.32,99.13,181.15z"/>
	<path d="M141.27,121.28c-0.34,13.71-10.64,25.97-24.8,27.4c-6.55,0.66-8.73,2.6-7.82,8.68c1.13,7.41-2.72,8.61-9.2,8.68
		c-6.62,0.05-8.93-2.43-8.09-8.58c1.52-11.53-7.01-7.92-12.73-8.44c-5.52-0.47-12.58,2.58-12.07-8.14c0.34-7.06,2.53-9.34,9.3-8.81
		c5.67,0.47,11.4,0.1,17.12,0.1v-0.07c6.52,0,13.07,0.22,19.57-0.07c7.38-0.34,11.14-4.83,11.04-11.94
		c-0.07-6.67-4.02-10.64-10.69-10.94c-8.14-0.39-16.33,0.15-24.45-0.37c-17.1-1.1-29.09-12.7-29.7-28.21
		c-0.59-15.01,9.59-27.05,26.61-29.26c7.36-0.96,6.23-5.15,5.89-9.25c-0.59-6.89,2.75-8.07,8.71-8.02c5.81,0.02,9.76,0.93,8.71,7.9
		c-1.89,12.36,7.26,9.15,13.32,8.9c7.6-0.29,12.53,0.44,11.38,10.15c-0.61,5.25-2.23,7.01-7.38,6.92
		c-11.8-0.25-23.64,0.07-35.47-0.1c-8.12-0.15-13.88,2.87-14.08,11.53c-0.17,8.81,5.69,11.6,13.73,11.82
		c9.34,0.22,18.71-1.08,28.01,1.15C132.22,95.7,141.61,107.32,141.27,121.28z"/>
	<path d="M141.27,121.28c-0.34,13.71-10.64,25.97-24.8,27.4c-6.55,0.66-8.73,2.6-7.82,8.68c1.13,7.41-2.72,8.61-9.2,8.68
		c-6.62,0.05-8.93-2.43-8.09-8.58c1.52-11.53-7.01-7.92-12.73-8.44c-5.52-0.47-12.58,2.58-12.07-8.14c0.34-7.06,2.53-9.34,9.3-8.81
		c5.67,0.47,11.4,0.1,17.12,0.1v-0.07c6.52,0,13.07,0.22,19.57-0.07c7.38-0.34,11.14-4.83,11.04-11.94
		c-0.07-6.67-4.02-10.64-10.69-10.94c-8.14-0.39-16.33,0.15-24.45-0.37c-17.1-1.1-29.09-12.7-29.7-28.21
		c-0.59-15.01,9.59-27.05,26.61-29.26c7.36-0.96,6.23-5.15,5.89-9.25c-0.59-6.89,2.75-8.07,8.71-8.02c5.81,0.02,9.76,0.93,8.71,7.9
		c-1.89,12.36,7.26,9.15,13.32,8.9c7.6-0.29,12.53,0.44,11.38,10.15c-0.61,5.25-2.23,7.01-7.38,6.92
		c-11.8-0.25-23.64,0.07-35.47-0.1c-8.12-0.15-13.88,2.87-14.08,11.53c-0.17,8.81,5.69,11.6,13.73,11.82
		c9.34,0.22,18.71-1.08,28.01,1.15C132.22,95.7,141.61,107.32,141.27,121.28z"/>
</g>
</svg>
