<?xml version="1.0" encoding="utf-8"?>
<!-- Generator: Adobe Illustrator 26.0.1, SVG Export Plug-In . SVG Version: 6.00 Build 0)  -->
<svg version="1.1" id="Layer_1" xmlns="http://www.w3.org/2000/svg" xmlns:xlink="http://www.w3.org/1999/xlink" x="0px" y="0px"
	 viewBox="0 0 100 100" style="enable-background:new 0 0 100 100;" xml:space="preserve">
<style type="text/css">
	.st0{fill:#010101;}
</style>
<path class="st0" d="M79.07,85.72c-1.91,1.17-3.39,2.07-5.28,3.22c-2.3-4.12-4.41-7.9-7.14-12.79c-0.44,2.76-0.67,4.26-1,6.33
	c-3.88,0-7.88,0-12.14,0c-0.31,2.4-0.56,4.27-0.85,6.52c-1.64,0-3.31,0-5.26,0c-0.2-1.94-0.39-3.83-0.63-6.27
	c-4.16,0-8.17,0-12.35,0c-0.3-1.93-0.52-3.33-0.95-6.1c-2.73,4.58-4.88,8.2-7.24,12.18c-1.68-0.87-3.21-1.66-5.29-2.73
	c3.08-5.61,5.8-11.15,9.05-16.35c3.07-4.92,4.4-9.99,4.04-15.79c-0.61-9.63,0.91-19.06,5.22-27.7c2.64-5.31,6.39-10.07,9.64-15.08
	c0.71-0.06,1.43-0.12,2.14-0.18c3.21,4.77,6.98,9.26,9.52,14.36c4.2,8.47,6.09,17.67,5.43,27.16c-0.45,6.46,0.97,12.17,4.46,17.63
	C73.49,74.96,76,80.12,79.07,85.72z M50,19.89C36.18,37.57,40.64,57.3,39.9,76.28c2.88,0,4.76,0,7.29,0c0-4.31,0-8.31,0-12.64
	c2.23,0.14,3.79,0.24,6,0.38c0,4.34,0,8.33,0,12.28c2.58,0,4.47,0,6.92,0C59.48,57.05,63.46,37.4,50,19.89z"/>
</svg>
